<svg width="100" height="100" viewBox="0 0 100 100" fill="none" xmlns="http://www.w3.org/2000/svg">
<g filter="url(#filter0_f_56_7)">
<path d="M4 19C4 10.7157 10.7157 4 19 4H81C89.2843 4 96 10.7157 96 19V81C96 89.2843 89.2843 96 81 96H19C10.7157 96 4 89.2843 4 81V19Z" fill="#FFE796"/>
</g>
<path d="M49.5 27C37.074 27 27 37.074 27 49.5C27 61.926 37.074 72 49.5 72C61.926 72 72 61.926 72 49.5C72 37.074 61.926 27 49.5 27ZM49.5 70.125C38.127 70.125 28.875 60.873 28.875 49.5C28.875 38.127 38.127 28.875 49.5 28.875C60.8722 28.875 70.125 38.127 70.125 49.5C70.125 60.873 60.8722 70.125 49.5 70.125Z" fill="black"/>
<path d="M41.1102 48.4076C43.2163 48.4076 44.9237 46.6708 44.9237 44.5283C44.9237 42.3858 43.2163 40.649 41.1102 40.649C39.004 40.649 37.2966 42.3858 37.2966 44.5283C37.2966 46.6708 39.004 48.4076 41.1102 48.4076Z" fill="black"/>
<path d="M58.6525 48.4076C60.7587 48.4076 62.4661 46.6708 62.4661 44.5283C62.4661 42.3858 60.7587 40.649 58.6525 40.649C56.5464 40.649 54.839 42.3858 54.839 44.5283C54.839 46.6708 56.5464 48.4076 58.6525 48.4076Z" fill="black"/>
<path d="M62.1686 54.1706C58.8676 58.9088 54.9603 60.1013 49.8806 60.1013C44.8017 60.1013 40.8943 58.9096 37.5933 54.1706C37.1334 53.5111 35.923 53.9262 36.1907 54.8836C37.9243 61.0944 43.8178 64.7115 49.8814 64.7115C55.9449 64.7115 61.8392 61.0944 63.5728 54.8836C63.839 53.9254 62.6286 53.5111 62.1686 54.1706Z" fill="black"/>
<defs>
<filter id="filter0_f_56_7" x="0" y="0" width="100" height="100" filterUnits="userSpaceOnUse" color-interpolation-filters="sRGB">
<feFlood flood-opacity="0" result="BackgroundImageFix"/>
<feBlend mode="normal" in="SourceGraphic" in2="BackgroundImageFix" result="shape"/>
<feGaussianBlur stdDeviation="2" result="effect1_foregroundBlur_56_7"/>
</filter>
</defs>
</svg>
