<svg width="100" height="100" viewBox="0 0 100 100" fill="none" xmlns="http://www.w3.org/2000/svg">
<g filter="url(#filter0_f_56_6)">
<rect x="4" y="4" width="92" height="92" rx="15" fill="#FF96E8"/>
</g>
<path d="M43.1362 53.0705C43.1362 53.4449 43.0212 53.8109 42.8057 54.1221C42.5902 54.4334 42.2839 54.6761 41.9256 54.8193C41.5673 54.9626 41.173 55.0001 40.7925 54.9271C40.4121 54.854 40.0627 54.6737 39.7884 54.409C39.5142 54.1443 39.3274 53.807 39.2517 53.4398C39.1761 53.0726 39.2149 52.692 39.3633 52.3461C39.5118 52.0002 39.7631 51.7045 40.0856 51.4965C40.4081 51.2885 40.7873 51.1775 41.1751 51.1775C41.6952 51.1775 42.194 51.377 42.5618 51.732C42.9296 52.087 43.1362 52.5684 43.1362 53.0705ZM58.8248 54.9634C59.2127 54.9634 59.5919 54.8524 59.9144 54.6444C60.2369 54.4364 60.4882 54.1408 60.6366 53.7949C60.7851 53.449 60.8239 53.0684 60.7482 52.7012C60.6726 52.334 60.4858 51.9967 60.2115 51.732C59.9373 51.4672 59.5878 51.2869 59.2074 51.2139C58.827 51.1409 58.4327 51.1783 58.0744 51.3216C57.716 51.4649 57.4097 51.7075 57.1943 52.0188C56.9788 52.3301 56.8638 52.6961 56.8638 53.0705C56.8638 53.5725 57.0704 54.054 57.4382 54.409C57.8059 54.764 58.3047 54.9634 58.8248 54.9634ZM75.2673 53.1452C74.8793 53.3167 74.4578 53.4061 74.0311 53.4073C73.588 53.4059 73.151 53.3066 72.7538 53.117C72.3566 52.9274 72.0097 52.6525 71.7397 52.3134L70.5913 50.9026V63.4817C70.5887 65.7401 69.6581 67.9053 68.0037 69.5022C66.3492 71.0992 64.1061 71.9975 61.7665 72H38.2335C35.8938 71.9975 33.6507 71.0992 31.9963 69.5022C30.3419 67.9053 29.4113 65.7401 29.4087 63.4817V50.9026L28.2603 52.3134C27.9902 52.6525 27.6433 52.9274 27.2461 53.117C26.8489 53.3066 26.412 53.4059 25.9689 53.4073C25.5422 53.4061 25.1206 53.3167 24.7327 53.1452C24.1281 52.8888 23.6324 52.4408 23.3275 51.8753C23.0226 51.3099 22.9268 50.661 23.056 50.0359L27.0806 29.316C27.1546 28.9355 27.3084 28.5736 27.5325 28.2526C27.7567 27.9316 28.0465 27.6582 28.3841 27.4492C28.7217 27.2403 29.1 27.1001 29.4958 27.0375C29.8916 26.9748 30.2965 26.9909 30.6856 27.0848L44.2372 30.355H55.7628L69.3146 27.0848C69.7037 26.9909 70.1086 26.9748 70.5043 27.0375C70.9001 27.1002 71.2784 27.2403 71.616 27.4493C71.9536 27.6582 72.2433 27.9316 72.4675 28.2526C72.6916 28.5736 72.8454 28.9354 72.9194 29.3159L76.944 50.0358C77.0732 50.6609 76.9774 51.3099 76.6725 51.8753C76.3676 52.4407 75.8719 52.8887 75.2673 53.1452ZM42.4106 31.8655L30.2099 28.9211C30.1312 28.9021 30.0504 28.8924 29.9693 28.8924C29.741 28.8932 29.5202 28.9708 29.3448 29.1118C29.1693 29.2529 29.0503 29.4485 29.0082 29.6651L24.9835 50.3847C24.9431 50.5929 24.9762 50.8081 25.0775 50.996C25.1789 51.1839 25.3425 51.3335 25.5424 51.421C25.7422 51.5085 25.9667 51.5287 26.1798 51.4785C26.393 51.4282 26.5826 51.3104 26.7182 51.1439L42.4106 31.8655ZM68.6302 48.4934L55.4066 32.248H44.5934L31.3697 48.4934V63.4817C31.3718 65.2383 32.0956 66.9223 33.3824 68.1644C34.6691 69.4064 36.4138 70.1051 38.2335 70.107H49.0194V65.7667L45.3846 62.2581C45.2007 62.0806 45.0973 61.8399 45.0973 61.5888C45.0973 61.3378 45.2006 61.0971 45.3844 60.9196C45.5683 60.7421 45.8177 60.6423 46.0777 60.6423C46.3378 60.6423 46.5872 60.742 46.7711 60.9195L50 64.0362L53.2289 60.9195C53.4128 60.742 53.6622 60.6423 53.9222 60.6423C54.1823 60.6423 54.4317 60.7421 54.6155 60.9196C54.7994 61.0971 54.9027 61.3378 54.9027 61.5888C54.9026 61.8399 54.7993 62.0806 54.6154 62.2581L50.9805 65.7667V70.107H61.7665C63.5862 70.1051 65.3309 69.4064 66.6176 68.1644C67.9044 66.9223 68.6282 65.2383 68.6302 63.4817V48.4934ZM75.0164 50.3846L70.9918 29.6649C70.9672 29.5381 70.9159 29.4175 70.8412 29.3105C70.7665 29.2034 70.67 29.1123 70.5574 29.0426C70.4449 28.973 70.3188 28.9262 70.1869 28.9053C70.055 28.8845 69.92 28.8898 69.7903 28.9211L57.5894 31.8655L73.2818 51.1439C73.4174 51.3104 73.607 51.4282 73.8202 51.4785C74.0333 51.5287 74.2578 51.5085 74.4577 51.421C74.6575 51.3335 74.8212 51.1838 74.9225 50.9959C75.0238 50.808 75.0569 50.5928 75.0164 50.3846L75.0164 50.3846Z" fill="black" stroke="black" stroke-width="0.25"/>
<defs>
<filter id="filter0_f_56_6" x="0" y="0" width="100" height="100" filterUnits="userSpaceOnUse" color-interpolation-filters="sRGB">
<feFlood flood-opacity="0" result="BackgroundImageFix"/>
<feBlend mode="normal" in="SourceGraphic" in2="BackgroundImageFix" result="shape"/>
<feGaussianBlur stdDeviation="2" result="effect1_foregroundBlur_56_6"/>
</filter>
</defs>
</svg>
