<svg width="24" height="24" viewBox="0 0 24 24" fill="none" xmlns="http://www.w3.org/2000/svg">
<path d="M12.0112 9.88842L19.9378 1.9833C20.5243 1.39821 21.474 1.39931 22.0591 1.98576C22.6443 2.57222 22.6431 3.52197 22.0567 4.10709L14.1335 12.0088L22.0532 19.9219C22.6392 20.5074 22.6396 21.4572 22.054 22.0432C21.4684 22.6292 20.5187 22.6295 19.9327 22.044L12.0093 14.1273L4.08312 22.0319C3.49664 22.617 2.54691 22.6159 1.96179 22.0295C1.37667 21.443 1.3778 20.4933 1.96425 19.9082L9.88702 12.0069L1.97199 4.09856C1.38598 3.513 1.38565 2.56324 1.97121 1.97723C2.55678 1.39122 3.50653 1.3909 4.09254 1.97646L12.0112 9.88842H12.0112Z" fill="black"/>
</svg>
