<svg width="80" height="80" viewBox="0 0 80 80" fill="none" xmlns="http://www.w3.org/2000/svg">
<g filter="url(#filter0_d_38_2)">
<circle cx="39.59" cy="35.59" r="27.59" fill="black"/>
</g>
<path d="M49.2271 29.7917C48.9371 29.4931 48.5411 29.321 48.125 29.3125H33.5104L33.3187 27.6833C33.2721 27.3362 33.1002 27.018 32.8355 26.7886C32.5708 26.5592 32.2315 26.4344 31.8812 26.4375H30.3958C30.1417 26.4375 29.8979 26.5385 29.7182 26.7182C29.5385 26.8979 29.4375 27.1417 29.4375 27.3958C29.4375 27.65 29.5385 27.8938 29.7182 28.0735C29.8979 28.2532 30.1417 28.3542 30.3958 28.3542H31.45L32.9833 41.2437C32.5587 41.4945 32.207 41.852 31.9633 42.2807C31.7195 42.7093 31.5921 43.1943 31.5937 43.6875C31.5937 44.45 31.8967 45.1813 32.4358 45.7204C32.975 46.2596 33.7063 46.5625 34.4687 46.5625C35.0636 46.5532 35.6419 46.3655 36.1289 46.0238C36.6158 45.6821 36.989 45.202 37.2 44.6458H42.2792C42.4902 45.202 42.8633 45.6821 43.3503 46.0238C43.8373 46.3655 44.4156 46.5532 45.0104 46.5625C45.7729 46.5625 46.5042 46.2596 47.0433 45.7204C47.5825 45.1813 47.8854 44.45 47.8854 43.6875C47.8854 42.925 47.5825 42.1937 47.0433 41.6546C46.5042 41.1154 45.7729 40.8125 45.0104 40.8125C44.4156 40.8218 43.8373 41.0094 43.3503 41.3512C42.8633 41.6929 42.4902 42.1729 42.2792 42.7292H37.2C37.0187 42.2317 36.7035 41.7939 36.2892 41.4642C35.8749 41.1344 35.3776 40.9255 34.8521 40.8604L34.7562 39.8542H46.8792C47.2211 39.8458 47.5489 39.7158 47.8036 39.4874C48.0583 39.2591 48.2232 38.9474 48.2687 38.6083L49.5625 31.0375C49.616 30.5945 49.4958 30.1479 49.2271 29.7917ZM45.9687 43.6875C45.9687 43.877 45.9125 44.0623 45.8072 44.2199C45.7019 44.3775 45.5523 44.5003 45.3772 44.5729C45.202 44.6454 45.0094 44.6644 44.8235 44.6274C44.6376 44.5904 44.4668 44.4992 44.3328 44.3651C44.1987 44.2311 44.1075 44.0604 44.0705 43.8745C44.0335 43.6886 44.0525 43.4959 44.125 43.3208C44.1976 43.1456 44.3204 42.996 44.478 42.8907C44.6356 42.7854 44.8209 42.7292 45.0104 42.7292C45.2646 42.7292 45.5083 42.8301 45.6881 43.0098C45.8678 43.1896 45.9687 43.4333 45.9687 43.6875ZM35.4271 43.6875C35.4271 43.877 35.3709 44.0623 35.2656 44.2199C35.1603 44.3775 35.0106 44.5003 34.8355 44.5729C34.6604 44.6454 34.4677 44.6644 34.2818 44.6274C34.0959 44.5904 33.9251 44.4992 33.7911 44.3651C33.6571 44.2311 33.5658 44.0604 33.5288 43.8745C33.4919 43.6886 33.5108 43.4959 33.5834 43.3208C33.6559 43.1456 33.7787 42.996 33.9363 42.8907C34.0939 42.7854 34.2792 42.7292 34.4687 42.7292C34.7229 42.7292 34.9667 42.8301 35.1464 43.0098C35.3261 43.1896 35.4271 43.4333 35.4271 43.6875ZM46.4479 37.9375H34.5167L33.75 31.2292H47.55L46.4479 37.9375Z" fill="#FFE58B"/>
<defs>
<filter id="filter0_d_38_2" x="0" y="0" width="79.18" height="79.18" filterUnits="userSpaceOnUse" color-interpolation-filters="sRGB">
<feFlood flood-opacity="0" result="BackgroundImageFix"/>
<feColorMatrix in="SourceAlpha" type="matrix" values="0 0 0 0 0 0 0 0 0 0 0 0 0 0 0 0 0 0 127 0" result="hardAlpha"/>
<feOffset dy="4"/>
<feGaussianBlur stdDeviation="6"/>
<feComposite in2="hardAlpha" operator="out"/>
<feColorMatrix type="matrix" values="0 0 0 0 0 0 0 0 0 0 0 0 0 0 0 0 0 0 0.25 0"/>
<feBlend mode="normal" in2="BackgroundImageFix" result="effect1_dropShadow_38_2"/>
<feBlend mode="normal" in="SourceGraphic" in2="effect1_dropShadow_38_2" result="shape"/>
</filter>
</defs>
</svg>
