<svg width="234" height="76" viewBox="0 0 234 76" fill="none" xmlns="http://www.w3.org/2000/svg">
<path d="M82.9 29.6V33.3H89.38V35.9H82.9V41H79.66V27H90.24V29.6H82.9ZM101.068 38H94.5675L93.3275 41H90.0075L96.2475 27H99.4475L105.708 41H102.308L101.068 38ZM100.048 35.54L97.8275 30.18L95.6075 35.54H100.048ZM119.858 27L113.798 41H110.598L104.558 27H108.058L112.318 37L116.638 27H119.858ZM127.631 41.24C126.178 41.24 124.865 40.9267 123.691 40.3C122.531 39.6733 121.618 38.8133 120.951 37.72C120.298 36.6133 119.971 35.3733 119.971 34C119.971 32.6267 120.298 31.3933 120.951 30.3C121.618 29.1933 122.531 28.3267 123.691 27.7C124.865 27.0733 126.178 26.76 127.631 26.76C129.085 26.76 130.391 27.0733 131.551 27.7C132.711 28.3267 133.625 29.1933 134.291 30.3C134.958 31.3933 135.291 32.6267 135.291 34C135.291 35.3733 134.958 36.6133 134.291 37.72C133.625 38.8133 132.711 39.6733 131.551 40.3C130.391 40.9267 129.085 41.24 127.631 41.24ZM127.631 38.48C128.458 38.48 129.205 38.2933 129.871 37.92C130.538 37.5333 131.058 37 131.431 36.32C131.818 35.64 132.011 34.8667 132.011 34C132.011 33.1333 131.818 32.36 131.431 31.68C131.058 31 130.538 30.4733 129.871 30.1C129.205 29.7133 128.458 29.52 127.631 29.52C126.805 29.52 126.058 29.7133 125.391 30.1C124.725 30.4733 124.198 31 123.811 31.68C123.438 32.36 123.251 33.1333 123.251 34C123.251 34.8667 123.438 35.64 123.811 36.32C124.198 37 124.725 37.5333 125.391 37.92C126.058 38.2933 126.805 38.48 127.631 38.48ZM146.646 41L143.946 37.1H143.786H140.966V41H137.726V27H143.786C145.026 27 146.1 27.2067 147.006 27.62C147.926 28.0333 148.633 28.62 149.126 29.38C149.62 30.14 149.866 31.04 149.866 32.08C149.866 33.12 149.613 34.02 149.106 34.78C148.613 35.5267 147.906 36.1 146.986 36.5L150.126 41H146.646ZM146.586 32.08C146.586 31.2933 146.333 30.6933 145.826 30.28C145.32 29.8533 144.58 29.64 143.606 29.64H140.966V34.52H143.606C144.58 34.52 145.32 34.3067 145.826 33.88C146.333 33.4533 146.586 32.8533 146.586 32.08ZM152.433 27H155.673V41H152.433V27ZM161.896 29.64H157.416V27H169.616V29.64H165.136V41H161.896V29.64ZM182.199 38.4V41H171.359V27H181.939V29.6H174.579V32.64H181.079V35.16H174.579V38.4H182.199ZM196.501 27C197.741 27 198.815 27.2067 199.721 27.62C200.641 28.0333 201.348 28.62 201.841 29.38C202.335 30.14 202.581 31.04 202.581 32.08C202.581 33.1067 202.335 34.0067 201.841 34.78C201.348 35.54 200.641 36.1267 199.721 36.54C198.815 36.94 197.741 37.14 196.501 37.14H193.681V41H190.441V27H196.501ZM196.321 34.5C197.295 34.5 198.035 34.2933 198.541 33.88C199.048 33.4533 199.301 32.8533 199.301 32.08C199.301 31.2933 199.048 30.6933 198.541 30.28C198.035 29.8533 197.295 29.64 196.321 29.64H193.681V34.5H196.321ZM215.734 38.4V41H204.894V27H215.474V29.6H208.114V32.64H214.614V35.16H208.114V38.4H215.734ZM221.212 29.64H216.732V27H228.932V29.64H224.452V41H221.212V29.64Z" fill="black"/>
<g filter="url(#filter0_d_1_20)">
<path d="M54.8753 8C50.3491 8.00275 46.005 9.76616 42.7784 12.9105L41.9984 13.672L41.2185 12.9105C37.9953 9.76106 33.649 7.99676 29.1216 8C24.5942 7.99676 20.2479 9.76106 17.0247 12.9105C15.4349 14.4639 14.1721 16.3143 13.3095 18.3547C12.447 20.3951 12.0019 22.5847 12 24.7968C12.0019 27.0088 12.447 29.1985 13.3095 31.2388C14.1721 33.2792 15.4349 35.1297 17.0247 36.683L40.0223 59.1963C40.5487 59.7113 41.2587 60 41.9984 60C42.7382 60 43.4482 59.7113 43.9746 59.1963L66.9684 36.6867C68.5589 35.1311 69.8231 33.2792 70.6882 31.2376C71.9913 28.1649 72.3335 24.7755 71.6703 21.5081C71.0071 18.2406 69.3691 15.2456 66.9684 12.9105C63.7419 9.76616 59.3978 8.00275 54.8715 8H54.8753Z" fill="black"/>
</g>
<path d="M32.5642 28.9296C33.0956 29.9892 33.201 31.2134 32.8586 32.3488C32.5162 33.4843 31.7523 34.4441 30.7248 35.0298C28.7721 35.7197 26.4288 34.1003 25.4934 31.4181C24.9611 30.3586 24.855 29.134 25.1969 27.9981C25.5389 26.8621 26.3028 25.9016 27.3304 25.3155C29.2832 24.6256 31.6264 26.2451 32.5642 28.9272V28.9296ZM48.2849 48C47.4328 48.0012 46.5888 47.8333 45.8015 47.5059C45.0142 47.1785 44.299 46.6982 43.6972 46.0925C43.2469 45.6407 42.6365 45.387 42 45.387C41.3635 45.387 40.7531 45.6407 40.3028 46.0925C39.0834 47.303 37.4364 47.9796 35.7216 47.9747C34.0069 47.9697 32.3638 47.2836 31.1513 46.0661C29.9388 44.8486 29.2554 43.1987 29.2505 41.4769C29.2456 39.7551 29.9195 38.1013 31.125 36.8768C32.5527 35.4421 34.248 34.3039 36.114 33.5274C37.98 32.7508 39.9801 32.3512 42 32.3512C44.0199 32.3512 46.02 32.7508 47.886 33.5274C49.752 34.3039 51.4473 35.4421 52.875 36.8768C53.7822 37.7883 54.4 38.9494 54.6501 40.2134C54.9002 41.4774 54.7715 42.7875 54.2802 43.978C53.7889 45.1685 52.9571 46.186 51.89 46.9019C50.8229 47.6178 49.5683 48 48.2849 48ZM41.3491 24.4683C41.6553 27.7047 39.9918 30.5104 37.6365 30.7331C35.2812 30.9558 33.1235 28.5133 32.8198 25.2768C32.5136 22.0427 34.177 19.2371 36.5324 19.0144C38.8877 18.7893 41.0429 21.2318 41.3491 24.4683ZM42.6509 24.4683C42.3447 27.7047 44.0082 30.5104 46.3635 30.7331C48.7188 30.9558 50.8741 28.5133 51.1802 25.2768C51.4864 22.0427 49.823 19.2371 47.4676 19.0144C45.1123 18.7893 42.9547 21.2318 42.6509 24.4683ZM51.4358 28.9272C50.903 29.9873 50.7968 31.2126 51.1392 32.3492C51.4817 33.4858 52.2465 34.4465 53.2752 35.0322C55.2279 35.7197 57.5712 34.1003 58.5066 31.4181C59.0389 30.3586 59.145 29.134 58.8031 27.9981C58.4611 26.8621 57.6972 25.9016 56.6696 25.3155C54.7168 24.6256 52.3736 26.2451 51.4358 28.9272Z" fill="#FFD43D" stroke="#FFD43D" stroke-width="0.00064"/>
<defs>
<filter id="filter0_d_1_20" x="0" y="0" width="84" height="76" filterUnits="userSpaceOnUse" color-interpolation-filters="sRGB">
<feFlood flood-opacity="0" result="BackgroundImageFix"/>
<feColorMatrix in="SourceAlpha" type="matrix" values="0 0 0 0 0 0 0 0 0 0 0 0 0 0 0 0 0 0 127 0" result="hardAlpha"/>
<feOffset dy="4"/>
<feGaussianBlur stdDeviation="6"/>
<feComposite in2="hardAlpha" operator="out"/>
<feColorMatrix type="matrix" values="0 0 0 0 0 0 0 0 0 0 0 0 0 0 0 0 0 0 0.25 0"/>
<feBlend mode="normal" in2="BackgroundImageFix" result="effect1_dropShadow_1_20"/>
<feBlend mode="normal" in="SourceGraphic" in2="effect1_dropShadow_1_20" result="shape"/>
</filter>
</defs>
</svg>
